<svg width="927" height="380" viewBox="0 0 927 380" fill="none" xmlns="http://www.w3.org/2000/svg">
<g clip-path="url(#clip0_660_2)">
<path d="M437.337 369.317L437.367 369.257C437.458 369.257 437.548 369.257 437.668 369.257L437.337 369.317ZM927 48.4178C927 57.987 926.669 71.6186 926.067 75.0792C925.495 80.6161 925.435 87.9886 925.224 94.6088C924.712 112.032 925.194 130.659 923.237 146.367C922.394 147.3 921.491 148.293 920.377 149.526C920.256 147.209 920.106 144.321 919.925 140.649C919.504 141.522 918.962 142.635 918.42 143.809C918.48 148.413 918.51 152.475 918.57 156.568C918.631 164.271 919.022 166.137 920.377 165.024C920.889 164.602 921.4 163.339 921.912 163.309C922.544 163.278 922.876 165.295 922.545 169.357C920.347 169.116 917.878 176.248 916.071 160.751C915.65 165.535 915.289 169.297 914.988 172.757C913.392 172.757 914.325 164.873 913.633 159.968C913.121 171.674 913.031 184.373 910.14 181.424C909.628 177.422 909.478 173.359 909.659 167.702C909.99 156.899 910.291 145.976 909.568 134.872C908.755 121.962 910.682 108.421 913.121 109.053C913.422 109.113 913.723 109.264 913.994 109.655C914.205 109.926 914.385 110.648 914.626 111.31C915.439 125.814 914.536 141.943 916.071 156.056C916.071 150.67 916.162 145.223 916.041 139.867C915.861 130.719 915.831 121.722 916.252 112.694C916.493 107.067 915.71 97.6782 914.686 93.1343C914.476 94.669 914.325 95.7824 914.295 96.0231C912.97 95.7222 911.917 95 910.863 95.3611C909.388 95.8727 908.635 94.0371 908.003 86.484C907.822 83.7757 907.672 80.9471 907.491 78.1787C907.31 75.8616 907.13 73.5746 906.919 70.8663C906.437 69.8432 905.955 68.0979 905.444 66.4127C904.932 64.7878 904.36 63.0725 903.788 61.2068C903.517 71.0168 903.246 80.4355 902.975 89.8543C902.824 98.4907 902.915 107.247 902.885 115.944C902.885 117.599 902.915 119.736 902.764 120.849C901.048 133.006 901.77 148.353 901.108 161.894C900.867 166.558 901.53 172.487 901.409 177.572C901.259 183.681 900.657 189.338 900.386 195.417C900.265 198.245 900.325 202.157 900.566 204.595C901.259 211.185 901.349 217.594 900.596 223.492C900.446 224.816 900.295 226.261 900.175 227.525C899.603 226.562 899.121 225.779 898.579 224.907C897.857 232.369 897.706 239.351 898.097 247.235C898.609 257.917 898.579 268.69 898.128 279.764C897.766 288.912 897.766 298.571 897.676 308.02C897.586 318.372 897.525 328.754 897.435 339.647C896.201 338.594 896.351 334.2 896.171 330.89C895.839 324.721 895.719 323.668 894.786 324.571V330.017C894.966 331.672 895.207 333.508 895.448 335.765C895.207 335.494 894.996 335.163 894.786 334.772V351.864H701.317C701.498 352.767 703.605 353.158 708.814 352.887C719.231 352.315 728.955 352.556 739.463 353.098C750.632 353.67 762.344 353.971 774.598 353.971C792.03 353.971 809.492 354.723 826.924 355.174C828.58 355.204 830.266 355.445 831.741 355.415C848.722 354.903 862.3 356.107 874.584 358.033C872.356 359.176 867.99 359.808 861.638 359.778C857.031 359.748 852.124 359.688 847.969 359.387C839.358 358.755 831.259 358.755 822.167 359.146C813.316 359.507 803.681 359.598 794.649 359.417C777.97 359.086 761.501 358.484 743.166 357.943C738.228 358.665 731.484 358.605 722.844 358.364C706.134 357.882 688.792 357.16 671.842 358.123C666.242 358.454 661.575 359.267 655.042 360.019C658.745 360.5 660.763 360.741 663.593 361.102C661.214 361.584 657.812 362.005 656.939 362.547C656.216 362.998 658.444 363.6 659.649 364.292C649.352 364.262 638.483 365.165 631.288 363.058C624.995 363.48 619.576 362.426 612.501 362.938C596.574 364.081 579.654 363.901 562.884 363.449C561.288 363.419 559.121 363.269 558.097 363.389C548.282 364.623 537.775 363.991 526.575 363.75C521.607 365.405 513.117 365.676 503.242 365.315C495.354 365.044 489.031 365.496 485.448 366.91C478.283 366.398 471.75 365.917 464.554 365.405C462.687 365.767 460.58 366.188 457.78 366.73C453.204 365.285 447.905 364.713 440.619 366.007C439.806 366.158 437.488 366.067 435.892 366.037C431.045 366.007 431.045 366.007 426.8 367.151C430.623 367.271 434.055 367.392 438.06 367.542L437.458 369.227C433.905 369.167 430.352 369.107 425.656 369.016C427.311 369.769 428.727 370.401 430.683 371.303C419.243 370.611 412.86 372.507 402.714 372.597C392.718 372.688 382.813 373.139 371.704 373.47C370.289 373.109 368.181 372.597 366.134 372.086C356.349 372.688 345.721 373.049 341.536 375.125C334.28 374.553 328.711 374.704 322.298 374.975C312.242 375.396 301.433 375.336 290.956 375.396C281.743 375.396 272.5 375.396 263.318 375.396C259.253 375.426 255.309 375.817 251.245 375.998C247.301 376.178 243.296 376.359 239.413 376.539C236.342 376.72 232.488 376.87 230.742 377.292C222.221 379.248 211.955 379.699 199.611 378.616C197.564 377.924 195.456 377.232 193.529 376.57C185.099 376.63 177.603 376.69 170.136 376.75C168.51 376.75 166.282 376.78 165.319 376.6C158.635 375.426 152.523 376.178 145.659 376.57C134.79 377.201 123.62 377.743 113.866 377.563C109.56 378.285 105.917 378.887 101.371 379.639C98.8422 379.097 97.7583 378.706 95.982 378.495C91.2552 377.954 85.3843 377.803 82.5241 378.736C80.1456 379.488 77.0446 379.789 73.7027 379.88C72.0468 379.91 70.3006 379.91 68.6146 379.88C66.1157 379.85 63.6168 379.819 61.2383 379.789C41.9095 379.669 24.0861 379.037 3.94437 379.609C3.88416 378.044 3.82394 376.449 3.79384 374.824C3.52287 368.114 4.33577 356.288 4.69705 345.244C3.94437 338.233 3.73362 328.001 4.51641 317.018C4.72716 315.423 4.8777 312.925 4.81748 311.15C3.91427 292.643 5.50995 275.401 5.60027 257.255C5.63037 251.267 5.57016 246.121 5.14866 240.283C4.57662 231.948 4.21534 223.161 4.8777 213.321C5.41962 205.076 5.2992 195.447 5.50995 186.419C5.66048 179.408 5.7207 172.306 6.02177 165.475C6.29273 158.885 5.7207 155.214 4.96802 151.723C5.02823 149.737 5.08845 147.751 5.17877 145.705C5.50995 146.608 5.81102 147.42 6.20241 148.503C6.50348 135.233 6.05187 122.384 6.83466 109.384C7.34648 101.199 6.74434 90.6066 6.47338 81.248C6.41316 77.4264 6.35295 73.4542 6.29273 69.5423C6.20241 62.9221 6.05188 56.2417 5.54005 50.1631C5.44973 48.9294 5.81102 44.1749 5.93145 40.955C5.17877 37.7653 4.45619 34.5455 3.55298 30.6335C3.55298 34.726 3.49276 38.0963 3.55298 41.1958C3.73362 48.3877 3.55298 53.3228 2.86051 55.3991C2.04762 57.7463 1.56591 53.4131 1.26483 46.0405C0.903548 35.6889 0.512155 25.1869 0.0605469 12.9395C0.572369 11.5553 1.02398 10.2312 1.50569 9.17802C1.80676 8.36554 2.10783 7.13177 2.31859 5.44663C6.86477 5.898 12.5851 5.898 19.9915 5.44663C23.1528 5.26608 25.3506 4.90497 28.6624 4.75451C35.8279 4.39341 42.9934 4.03231 50.189 3.67121C53.8922 3.49066 57.6255 3.3402 61.3588 3.15965L66.7178 2.91891L69.7286 2.67818C75.9607 2.19671 81.922 2.34717 87.1907 3.28001C89.2982 3.64112 93.8745 4.09249 95.7713 3.91194C105.104 3.12955 113.233 4.03231 120.971 4.48369C126.932 4.84479 131.328 4.69433 136.566 4.39341C148.971 3.7013 161.284 2.949 174.652 3.00919C182.871 3.03928 191.121 2.85873 201.779 2.76845C202.471 2.88882 205.241 3.3101 208.854 3.88185C212.647 1.77542 221.409 1.38423 232.247 1.65505C233.572 1.08331 234.746 0.601837 236.071 0C242.935 1.35413 249.619 2.55781 255.61 3.88185C261.511 5.1758 268.466 5.98828 278.07 6.04846C280.118 6.04846 282.105 6.22901 284.272 6.34938C287.584 5.38644 292.01 4.93507 297.55 5.71745C303.842 6.59012 310.616 5.83782 317.119 5.95819C318.956 5.98828 322.027 5.20589 323.171 4.69433C326.754 3.12955 330.276 2.37726 339.007 2.52772C357.433 2.85873 375.768 3.43047 394.073 3.94203C399.432 4.09249 402.985 4.75451 404.791 5.65727C405.755 6.13874 406.718 6.6503 408.163 7.10168C413.372 8.75673 418.46 9.02756 428.636 8.15489C436.524 8.69655 444.202 10.141 454.318 8.27526C448.356 7.16186 443.63 5.86791 436.855 5.14571C429.961 4.4235 421.049 4.33323 412.378 3.94203C413.492 2.70827 419.032 2.28698 424.602 2.04625C428.576 1.8657 433.122 1.8657 437.126 2.01615C452.3 2.61799 467.414 3.21983 482.588 3.82167C489.091 4.0624 495.685 4.27304 502.308 4.36332C504.898 4.39341 507.758 4.09249 510.317 3.88185C522.059 2.88882 533.53 1.74533 547.409 2.28698C549.848 2.37726 552.527 2.34717 554.996 2.28698C562.342 2.07634 569.176 2.10643 575.138 3.06937C576.161 3.21983 578.269 3.18974 580.346 3.28001C582.243 2.67818 584.019 2.10643 586.488 1.32404C592.269 2.73836 599.765 2.46753 607.684 2.46753C620.961 2.49762 634.208 2.949 647.907 3.24992C660.431 0.842572 676.569 0.240735 694.844 1.1134C704.478 1.56478 704.418 1.62496 712.125 0.752297C723.837 1.4745 734.676 2.13652 745.635 2.79854C748.164 2.949 751.355 2.67818 754.245 2.64808H763.609C765.686 2.67818 768.215 2.91891 769.72 2.79854C783.239 1.59487 795.733 2.61799 808.529 3.21983C812.623 3.43047 817.019 3.43047 822.649 3.55084C821.926 2.61799 821.053 2.04625 821.234 1.4745C821.354 1.1134 823.01 0.752297 824.004 0.421286C826.021 0.722205 829.122 0.96294 829.754 1.32404C830.507 1.74533 829.062 2.28698 827.978 3.37029C832.584 2.76845 835.444 2.52772 837.221 2.13652C847.427 -0.120368 848.24 -0.120368 858.537 1.89579C860.343 1.8657 862.27 1.8356 864.347 1.80551C866.936 1.80551 869.676 1.80551 872.536 1.80551C878.227 1.8657 884.369 1.89579 890.691 1.95597C903.216 2.13652 916.102 2.46753 926.639 2.88882C926.398 9.41875 926.127 15.1362 925.856 19.8004C926.609 28.5572 926.97 38.2468 927 48.4178ZM458.111 7.85398C459.315 9.5993 459.315 9.5993 472.442 9.47894C472.773 7.55306 472.442 7.52296 458.111 7.85398ZM232.638 3.58093C238.479 4.33323 238.479 4.33323 243.176 3.58093C239.804 3.58093 236.733 3.58093 232.638 3.58093ZM130.485 7.34241C134.76 8.00444 135.513 9.02756 141.805 9.26829C143.431 7.22205 142.197 6.98131 130.485 7.34241ZM48.774 5.98828C49.4965 6.13874 51.2729 6.25911 52.5976 6.37947C53.8922 6.22901 55.1567 6.07856 57.2642 5.83782C54.3438 5.74755 52.5072 5.62718 50.7008 5.62718C49.9481 5.65727 48.4127 5.898 48.774 5.98828ZM6.53359 23.4115C6.05188 20.1014 5.57016 16.8514 5.11855 13.6015C5.17877 23.1406 5.05834 33.1913 5.90134 40.6541C6.11209 35.1473 6.32284 29.6405 6.53359 23.4115ZM21.4667 8.72664C14.8733 8.57618 9.63463 8.42572 5.20887 8.33545C5.17877 10.3516 5.14866 11.8261 5.11855 13.3307C5.11855 13.3608 5.11855 13.3608 5.11855 13.3909C5.7207 13.4812 6.32284 13.6316 6.71423 9.80995C8.91206 10.0206 12.0733 10.171 16.5894 10.2312C17.9743 9.80995 19.5098 9.32848 21.4667 8.72664ZM30.3785 7.19195C29.3548 7.13177 28.2108 6.98131 27.3678 7.0114C26.2237 7.0415 25.3506 7.16186 24.357 7.22205L27.3678 7.43269L30.3785 7.19195ZM396.692 366.218C395.819 365.797 395.277 365.556 394.103 365.014C390.671 365.556 388.443 365.857 386.546 366.218C386.004 366.308 386.456 366.579 386.456 366.88C390.099 366.639 393.23 366.429 396.692 366.218ZM424.271 367.121C418.61 366.128 415.63 366.128 412.469 367.542C417.045 367.392 419.935 367.301 424.271 367.121ZM513.237 355.505C513.569 355.325 512.184 355.084 510.979 354.633C509.444 355.054 508.36 355.265 507.999 355.505C507.848 355.626 509.414 355.927 509.745 355.927C511.1 355.806 512.876 355.686 513.237 355.505ZM525.009 358.123L520.313 357.882L519.741 358.153L523.685 358.545L525.009 358.123ZM534.884 355.716L528.562 355.806L528.652 356.167L534.854 356.258L534.884 355.716ZM609.069 354.602C606.871 355.054 605.094 355.385 603.348 355.746C602.355 355.505 601.391 355.295 601.15 355.234C595.671 355.596 589.679 356.438 586.368 356.167C576.944 355.445 566.738 356.619 557.977 355.565C557.495 355.505 556.411 355.596 555.598 355.626C551.624 355.776 547.65 355.957 542.2 356.167C544.218 356.649 545.603 357.401 547.861 357.491C555.538 357.792 564.299 358.334 571.194 357.973C582.996 357.341 594.436 357.642 607.081 357.551C609.37 356.769 615.451 356.017 609.069 354.602ZM650.315 362.637L649.502 362.186L643.09 362.547L643.872 362.998L650.315 362.637ZM914.175 152.295C914.024 151.603 913.904 150.73 913.753 150.339C913.693 150.188 913.542 151.001 913.362 151.603C913.542 152.325 913.693 153.137 913.874 153.468C913.934 153.619 914.054 152.716 914.175 152.295ZM518.747 371.965C518.777 371.965 518.777 371.996 518.777 371.996L518.898 371.965C518.867 371.965 518.807 371.965 518.747 371.965ZM506.283 370.581C498.274 370.581 490.657 369.498 482.438 370.31L482.076 370.25C482.076 370.28 482.046 370.31 482.046 370.341H482.317C488.82 372.236 498.184 372.748 510.106 372.116C512.816 371.965 515.857 372.026 518.747 371.996C518.145 371.695 517.904 371.243 516.73 371.123C513.508 370.822 509.805 370.581 506.283 370.581ZM916.764 186.6L916.824 189.488C917.336 190.752 918.059 191.234 918.299 193.43C918.811 198.275 919.413 200.141 920.286 197.403C921.009 195.146 922.033 194.333 922.003 186.088C920.196 184.252 918.48 184.914 916.764 186.6ZM917.848 206.189C917.607 208.206 917.246 210.131 917.185 212.268C917.095 217.203 917.155 222.258 917.155 227.795C918.059 229.45 918.45 228.999 918.48 224.816C918.51 218.888 918.36 212.9 918.299 206.972L917.848 206.189ZM446.068 371.153L448.356 371.123C449.561 370.1 450.795 369.047 452.27 367.783C449.169 367.963 446.46 368.144 443.479 368.324C444.412 369.347 445.255 370.25 446.068 371.153ZM470.305 371.454C473.436 371.755 476.597 372.086 481.384 372.567C481.685 371.544 481.896 370.942 482.076 370.341L470.335 370.972L470.305 371.454ZM3.04116 146.758C3.07126 142.425 3.13148 138.092 3.19169 132.103C1.74655 137.068 2.07773 141.883 3.04116 146.758ZM529.796 370.491C525.943 371.003 522.48 371.484 519.048 371.935C528.712 371.815 528.743 371.815 529.796 370.491ZM518.807 371.996C518.898 371.996 518.988 371.965 519.078 371.965C519.048 371.965 519.018 371.965 518.958 371.965C518.897 371.965 518.807 371.996 518.807 371.996ZM679.128 362.156L680.995 362.637C682.681 362.366 684.397 362.125 686.053 361.855C686.143 361.825 684.908 361.524 684.848 361.524C682.921 361.764 681.025 361.975 679.128 362.156ZM437.608 369.287C437.578 369.287 437.337 369.317 437.337 369.317C437.367 369.317 437.397 369.317 437.458 369.347C437.518 369.317 437.578 369.317 437.608 369.287ZM437.307 370.762C441.883 370.19 439.776 369.769 437.427 369.347C436.253 369.799 434.146 370.28 437.307 370.762ZM4.9078 152.776C4.9078 152.475 4.9078 152.175 4.93791 151.874C4.93791 151.874 4.93791 151.844 4.93791 151.813C4.93791 151.783 4.93791 151.753 4.93791 151.753C4.93791 151.693 4.9078 151.663 4.9078 151.603V152.776ZM5.05834 164.723L4.8777 152.776C4.78737 156.779 4.72716 160.721 4.63684 164.693L5.05834 164.723ZM498.394 368.264C497.521 368.475 496.377 368.655 496.407 368.806C496.438 368.956 497.642 369.107 498.304 369.257C499.147 369.077 500.321 368.926 500.713 368.716C500.893 368.655 499.418 368.475 498.394 368.264ZM476.898 367.783C476.838 367.753 475.393 367.783 474.61 367.783L475.995 368.806L478.102 368.716C477.741 368.385 477.47 368.084 476.898 367.783ZM911.856 98.7916L911.104 102.162L911.314 103.727L912.067 100.356L911.856 98.7916Z" fill="#9C8058"/>
<path d="M161.014 88.0486C161.014 94.6387 156.317 99.0622 150.265 99.0622C143.822 99.0622 139.246 94.4882 139.246 88.0486C139.246 84.9491 139.788 82.6922 142.197 76.4933L149.302 57.415H160.05L154.661 77.9678C158.605 79.5927 161.014 83.0834 161.014 88.0486ZM189.495 88.0486C189.495 94.6387 184.798 99.0622 178.747 99.0622C172.304 99.0622 167.727 94.4882 167.727 88.0486C167.727 84.9491 168.269 82.6922 170.678 76.4933L177.783 57.415H188.532L183.172 77.9678C187.086 79.5927 189.495 83.0834 189.495 88.0486Z" fill="white"/>
<path d="M769.088 294.81C769.088 288.219 773.785 283.796 779.836 283.796C786.279 283.796 790.855 288.37 790.855 294.81C790.855 297.909 790.313 300.166 787.905 306.365L780.799 325.443H770.051L775.41 304.89C771.496 303.265 769.088 299.775 769.088 294.81ZM740.606 294.81C740.606 288.219 745.303 283.796 751.355 283.796C757.798 283.796 762.374 288.37 762.374 294.81C762.374 297.909 761.832 300.166 759.423 306.365L752.318 325.443H741.57L746.929 304.89C743.045 303.265 740.606 299.775 740.606 294.81Z" fill="white"/>
<path d="M336.87 320.027C335.816 319.997 334.763 319.967 333.287 319.907C333.709 319.756 334.04 319.636 334.341 319.546C336.689 319.606 336.78 319.816 336.87 320.027L338.406 319.696C339.52 319.756 340.513 319.817 341.507 319.847C342.079 319.877 342.922 319.967 343.132 319.937C345.18 319.696 347.679 319.756 349.937 319.726C352.737 319.666 355.898 319.516 358.336 319.636C362.22 319.817 366.074 319.726 370.018 319.786C369.687 319.877 369.446 319.967 369.175 320.027C369.807 320.057 370.409 320.057 371.012 320.087H370.951C372.005 319.907 373.119 319.756 375.106 319.816C377.334 319.847 379.291 319.907 381.369 319.937C384.078 319.997 386.938 319.967 389.407 320.087C392.328 320.238 394.977 320.148 397.476 320.027C399.222 319.937 400.758 319.907 402.534 319.907C407.953 319.937 413.101 320.298 418.671 320.148C419.213 320.117 419.936 320.178 420.418 320.208C422.254 320.388 423.91 320.358 425.174 320.178C427.011 320.268 428.848 320.448 429.992 320.388C433.574 320.178 436.886 320.358 440.318 320.388C442.245 320.418 444.564 320.509 445.979 320.148C446.852 319.937 448.598 319.967 450.013 320.087C450.555 320.148 450.856 320.238 451.639 320.358C452.993 320.178 454.077 320.027 455.372 319.877C458.292 319.907 461.634 319.786 464.886 319.636C466.933 319.546 468.77 319.365 470.757 319.636C471.028 319.666 471.72 319.666 472.202 319.666C474.43 319.666 476.688 319.636 479.187 319.606C479.759 319.756 480.391 319.937 481.023 320.087C484.726 320.328 487.767 320.238 490.326 319.756C490.838 319.666 492.012 319.606 492.916 319.576C494.18 319.516 495.264 319.486 496.438 319.455C497.642 319.395 498.817 319.305 500.051 319.305C502.821 319.305 505.561 319.305 508.3 319.305C511.432 319.305 514.653 319.305 517.664 319.215C519.591 319.154 521.246 319.124 523.414 319.245C524.679 318.733 527.84 318.643 530.76 318.523C531.362 318.643 531.995 318.763 532.416 318.854C535.758 318.763 538.889 318.703 541.689 318.643C544.73 318.613 546.627 318.161 550.059 318.342C549.457 318.131 549.035 317.981 548.554 317.8C549.999 317.83 551.083 317.83 552.167 317.861H552.076L552.257 317.439C551.053 317.409 550.029 317.379 548.885 317.349C550.149 317.078 550.149 317.078 551.595 317.078C552.076 317.078 552.769 317.108 553.01 317.078C555.177 316.777 556.773 316.898 558.128 317.259C558.971 317.138 559.603 317.018 560.145 316.928C562.283 317.048 564.24 317.168 566.377 317.289C567.461 316.958 569.328 316.837 571.706 316.898C574.657 316.988 577.186 316.928 578.691 316.506C582.033 316.567 585.164 316.717 588.115 316.416C588.416 316.386 589.048 316.416 589.53 316.416C594.527 316.536 599.585 316.567 604.342 316.296C606.45 316.175 608.076 316.416 609.972 316.326C612.14 316.837 615.362 316.627 618.463 316.627C618.101 316.446 617.439 316.326 617.65 316.205C617.921 316.085 618.914 315.965 619.637 315.874C618.794 315.784 618.192 315.724 617.078 315.604C619.035 315.423 620.42 315.243 622.106 315.152C627.164 314.912 632.342 315.092 637.34 315.212C639.929 315.273 641.946 315.273 643.421 315.122C648.901 315.243 653.989 315.363 658.806 315.483C661.516 315.513 664.376 315.513 667.025 315.423C669.735 315.333 672.174 315.333 674.733 315.483C675.967 315.543 677.443 315.574 678.827 315.574C680.724 315.574 682.019 315.423 682.711 315.152C679.038 314.701 674.974 314.4 669.916 314.52C669.464 314.52 668.982 314.46 668.471 314.46C663.262 314.34 658.053 314.159 652.845 314.159C649.172 314.159 645.679 314.099 642.338 313.949C639.206 313.828 636.286 313.768 633.185 313.888C631.499 313.949 630.897 313.858 630.927 313.587C636.256 313.497 640.983 312.956 646.643 313.287C646.914 313.287 647.125 313.287 647.396 313.287C651.4 313.166 655.344 313.196 659.288 313.347C660.221 313.377 661.305 313.377 662.269 313.377C667.929 313.226 673.649 313.076 679.279 312.956C683.825 312.835 684.518 312.685 682.771 312.083C682.32 312.083 681.597 312.143 681.507 312.113C680.333 311.872 681.206 311.692 681.959 311.481C682.621 311.511 683.133 311.541 683.825 311.571C683.825 311.481 684.036 311.391 683.795 311.361C682.049 311.06 678.767 311.21 676.871 310.909C672.505 310.879 672.505 310.879 670.789 310.488C670.488 310.669 670.187 310.819 669.765 311.06C669.133 310.909 668.651 310.789 668.109 310.669C667.417 310.759 666.875 310.819 665.61 310.939C666.032 310.669 666.273 310.518 666.664 310.307C668.079 310.518 669.916 310.217 670.819 310.518C672.174 310.458 673.498 310.428 675.245 310.368C674.552 310.277 674.04 310.217 673.589 310.187C673.95 310.097 674.763 309.976 674.582 309.916C674.131 309.736 673.498 309.555 672.565 309.405C670.608 309.134 670.006 309.585 668.531 309.555C667.116 309.555 665.701 309.525 664.195 309.525C663.413 309.314 664.677 308.983 662.329 308.833C661.967 309.014 661.666 309.164 661.365 309.314C658.023 309.254 659.83 308.863 658.686 308.652C656.428 308.592 654.109 308.502 651.58 308.412C649.082 308.321 646.643 308.081 644.234 308.442C643.963 308.442 643.482 308.412 643.181 308.412C639.267 308.502 635.353 308.562 631.469 308.382C630.987 308.833 630.987 308.833 629.241 309.074C628.97 309.014 628.609 308.953 628.488 308.893C627.465 308.321 624.544 308.111 620.63 308.081C618.523 308.081 616.506 308.081 614.278 308.051C611.99 307.99 610.394 308.051 609.37 308.412C607.052 308.051 604.794 308.201 602.536 308.352C601 308.02 598.803 307.93 596.304 307.96C595.671 307.96 595.069 307.96 594.437 307.96C588.717 307.87 583.057 307.93 577.396 308.02C574.506 308.051 571.676 308.171 568.816 307.99C568.153 307.96 567.31 307.96 566.558 307.96L556.02 308.02C555.298 308.02 554.455 307.99 553.401 307.96C554.605 307.81 555.448 307.72 556.382 307.599C554.575 307.479 553.19 307.389 551.715 307.298C551.805 307.389 551.896 307.509 551.956 307.569C550.45 307.659 549.065 307.75 547.741 307.84C546.145 307.93 544.339 307.96 543.134 307.78C541.238 307.479 539.311 307.509 536.962 307.629C535.487 307.72 533.861 307.78 532.356 307.78C529.436 307.72 526.244 307.689 523.384 307.629C520.855 307.629 519.019 307.539 517.664 307.238C515.526 307.389 513.539 307.659 511.672 307.238C511.492 307.208 510.558 307.208 509.986 307.208C507.548 307.178 504.958 307.208 502.7 307.118C500.774 307.027 499.63 307.027 498.847 307.268C496.98 307.238 495.746 307.118 495.866 306.847C493.638 306.817 492.675 307.058 492.073 307.238C491.109 307.569 489.634 307.659 487.406 307.629C485.479 307.599 483.974 307.689 482.8 307.9C482.709 307.93 482.348 307.9 481.987 307.9C481.716 307.81 481.415 307.689 481.053 307.569C478.554 307.569 476.176 307.569 473.767 307.569L472.623 307.81L471.961 307.689L473.858 307.569C473.075 307.358 471.75 307.328 470.305 307.358C469.041 307.358 467.716 307.419 466.542 307.389C463.079 307.268 459.858 307.328 456.757 307.569C456.576 307.569 456.275 307.569 456.245 307.569C455.643 307.479 455.131 307.389 454.529 307.268C453.626 307.419 452.873 307.569 451.789 307.75C451.428 307.659 451.187 307.629 451.097 307.569C450.495 307.268 449.32 307.238 447.092 307.268C444.834 307.358 442.456 307.449 439.897 307.539C437.458 307.659 434.959 307.78 432.159 307.689C431.015 307.659 429.45 307.72 428.396 307.84C426.8 307.99 425.626 307.96 424.362 307.78C423.79 307.72 423.218 307.629 422.645 307.569C421.23 307.389 419.785 307.389 418.701 307.629C417.317 307.9 415.329 307.99 413.041 308.051C411.867 307.689 409.519 307.629 407.14 307.569H407.231C406.538 307.84 405.846 308.081 405.033 308.412C403.527 308.412 401.721 308.562 399.854 308.321C399.192 308.231 397.657 308.291 396.543 308.291C393.592 308.321 390.581 308.351 387.631 308.412C387.089 308.412 386.487 308.352 385.945 308.321C384.59 308.201 383.386 308.141 381.7 308.231C379.622 308.321 378.207 308.141 377.786 307.81C376.943 307.81 376.1 307.81 375.197 307.78C374.865 307.599 374.564 307.419 374.293 307.268C371.644 307.148 369.235 307.027 366.496 306.907C366.977 306.847 367.339 306.817 367.67 306.787C368.151 306.757 368.603 306.696 369.145 306.666C365.713 306.215 365.743 306.215 362.04 306.456C360.173 306.546 358.517 306.636 357.223 306.696C356.41 306.907 355.747 307.058 354.844 307.268C353.339 307.088 352.255 306.937 350.629 306.757C352.165 306.666 352.947 306.636 353.58 306.576C352.044 306.275 350.9 306.215 349.214 306.365C348.19 306.456 346.866 306.486 345.631 306.486C342.861 306.516 340.122 306.546 337.382 306.576C336.178 306.576 334.973 306.576 333.769 306.576C332.685 306.546 331.541 306.546 330.457 306.516C326.212 306.486 321.967 306.456 317.21 306.426C316.488 306.877 314.109 306.727 311.701 306.606C309.593 306.546 307.666 306.486 305.799 306.426C304.987 306.396 304.023 306.426 303.24 306.456C297.038 306.787 292.914 306.787 287.133 306.456C286.712 306.426 286.17 306.456 286.41 306.456C284.032 306.696 282.075 306.877 280.389 307.058C278.643 307.208 276.897 307.208 275.211 306.967C273.103 306.696 272.471 306.696 269.942 306.907C268.406 307.058 266.961 307.088 265.305 307.027C263.83 306.967 261.873 306.997 261.753 306.666C261.723 306.636 261.271 306.576 260.94 306.576C258.471 306.486 256.062 306.426 252.961 306.305C254.015 306.516 254.677 306.666 255.882 306.937C253.895 306.847 252.811 306.817 251.637 306.757C250.824 306.727 250.011 306.636 249.198 306.636C246.428 306.636 243.538 306.606 240.888 306.696C236.312 306.847 231.736 306.877 227.16 306.847C224.36 306.817 221.56 306.787 218.79 306.606C216.381 306.426 212.889 306.305 210.42 306.426C206.928 306.576 203.525 306.666 199.913 306.696C199.07 306.696 198.287 306.847 197.504 306.907L199.22 306.967L198.829 307.058L197.594 306.877L194.162 306.937C196.48 306.727 196.119 306.456 195.667 306.185H195.698C195.336 306.215 194.975 306.245 194.644 306.245C191.663 306.185 189.526 306.365 188.02 306.727C187.87 306.757 187.418 306.787 187.057 306.817C187.689 306.365 187.538 306.335 184.769 306.185C180.584 305.944 176.579 306.125 171.792 306.185C172.816 306.305 173.448 306.335 173.719 306.396C174.05 306.486 174.111 306.576 174.291 306.666C173.629 306.666 172.666 306.727 172.304 306.666C169.805 306.365 166.885 306.426 164.958 306.426C162.79 306.245 161.466 306.065 159.93 306.004C158.395 305.944 156.679 306.034 154.571 306.065C154.3 306.004 153.638 305.884 153.337 305.764C152.614 305.493 151.44 305.493 149.754 305.583C146.352 305.764 143.13 306.095 139.096 305.764C137.47 305.613 135.032 305.794 133.135 305.583C132.442 305.493 130.696 305.553 129.883 305.764C130.937 305.914 131.991 306.065 133.315 306.275C129.612 306.185 127.414 306.034 124.163 305.643C123.049 305.493 121.995 305.463 120.731 305.523C118.954 305.613 117.027 305.703 114.95 305.824C114.559 305.673 114.89 305.433 112.873 305.463C112.632 305.553 112.361 305.643 112.06 305.734C107.393 305.222 106.038 305.192 104.262 305.613C100.198 305.433 97.7288 305.433 95.6514 305.613C96.6148 305.643 97.3976 305.673 99.0535 305.703C96.6449 305.824 94.417 305.884 92.2794 305.914H91.4665H91.0751H90.9547H90.7138C90.6235 305.914 90.5633 305.914 90.4729 305.884L90.5031 305.734C90.5031 305.643 90.6235 305.523 90.5633 305.523C90.5332 305.493 90.3525 305.523 90.2622 305.523C90.3525 305.342 90.4127 305.523 90.5031 305.102C90.5633 304.229 90.6536 303.416 90.7138 302.724C90.8342 301.039 90.6837 299.926 90.3826 300.106C90.3224 300.136 90.2622 300.347 90.2321 300.377C90.0514 295.412 89.8708 290.627 89.7203 285.813C89.7203 285.632 89.6902 285.301 89.6601 285.121C89.5095 281.209 89.3891 277.327 89.2386 273.445C89.2386 273.084 89.2084 272.542 89.2386 272.362C89.4794 270.677 89.2988 268.991 89.1482 268.119C88.7568 265.711 88.5461 262.552 88.3956 259.121C88.2149 259.121 88.0343 259.121 87.8837 259.121C88.0343 258.008 88.1547 257.376 88.3654 257.346C88.6364 257.286 88.6966 256.082 88.6966 254.246C88.6966 251.869 88.3956 251.839 88.2149 250.695C87.8536 248.198 87.5224 248.74 87.2214 250.003C87.2214 251.809 87.1913 253.193 87.1913 254.547C87.2214 254.668 87.2515 254.878 87.2816 254.878C87.4321 254.818 87.6429 254.668 87.673 256.082C87.7332 257.617 87.5526 257.918 87.3719 258.188C87.3418 258.218 87.3418 258.218 87.3117 258.309C87.2515 258.971 87.1612 259.633 87.1311 260.355C87.1311 260.596 87.2816 261.137 87.3719 261.468C87.4321 261.649 87.4923 261.649 87.5526 261.739C87.4321 262.552 87.3418 262.702 87.2214 262.913C86.83 263.695 86.559 262.552 86.6192 259.813C86.7096 256.323 86.559 253.554 86.3483 250.575C86.2579 249.071 86.2881 247.145 86.2579 245.399C86.2278 242.541 86.1977 239.682 86.1676 236.823C86.1676 236.221 86.1074 235.559 86.1375 234.988C86.2881 231.166 85.8967 230.052 85.445 228.066C85.6257 231.557 85.3848 232.941 85.1139 234.416C85.0838 234.085 85.0537 233.934 85.0537 233.904L85.0838 230.173C85.1139 227.525 84.9633 226.742 84.6021 227.495C84.4515 227.826 84.301 229.24 84.0601 227.826C84.0902 226.532 84.1203 224.967 84.1504 223.462C84.1806 221.567 84.1203 220.002 83.759 219.43C83.7892 221.085 83.8193 222.469 83.8193 223.914C83.6687 224.094 83.5182 224.245 83.3978 224.365C83.2773 221.687 83.0666 219.851 82.5548 219.129C82.6752 220.543 82.7655 221.446 82.8558 222.289C82.4945 222.83 82.4945 222.77 82.4042 220.604C82.3741 219.611 82.4042 218.317 82.1032 217.986C82.073 221.236 82.073 224.335 82.0429 227.435C82.0128 230.203 81.9827 232.851 81.9225 235.86C81.8021 239.17 81.8021 242.39 81.9225 245.58C82.0128 247.927 81.9827 250.033 81.8021 252.26C81.6817 251.989 81.5612 251.779 81.4107 251.478C81.3806 251.839 81.3505 252.23 81.3204 252.682C81.1397 254.457 81.1698 256.353 81.3204 258.339C81.3806 259.061 81.3806 260.235 81.3505 261.077C81.2602 262.732 81.1698 264.899 81.1096 266.403C81.0795 267.908 81.23 269.683 81.1698 271.098C81.0193 275.13 81.1698 279.734 80.7784 283.345C80.7483 283.676 80.7483 284.308 80.7483 284.82C80.7483 287.408 80.7483 289.965 80.7182 292.613C80.658 295.141 80.5978 297.91 80.5075 300.678C80.2064 299.775 79.9655 299.023 79.7548 298.301C79.6946 297.488 79.6645 296.766 79.6043 296.104C79.5742 295.262 79.5139 294.539 79.4838 293.637C79.3333 291.38 79.1527 290.838 78.7914 290.988C78.5505 291.109 78.2795 290.898 77.9785 290.808C77.9785 290.868 77.9484 291.199 77.8882 291.681C77.6473 290.326 77.4666 287.528 77.5269 285.843C77.6172 283.135 77.6172 280.456 77.5871 277.718C77.5871 276.063 77.5871 274.498 77.5871 272.873C77.9484 277.086 77.7376 281.901 77.9484 286.234C78.0086 286.415 78.0387 286.655 78.0989 286.715C78.1591 286.836 78.2494 286.866 78.3096 286.896C78.8817 287.077 79.3634 283.044 79.1527 279.192C78.972 275.882 79.0623 272.602 79.1225 269.383C79.1527 267.697 79.1225 266.494 79.0021 265.29C78.3096 264.417 78.2795 268.209 78.1591 271.7C78.0086 270.165 78.2494 267.818 77.858 267.818C77.7978 268.841 77.7075 269.984 77.5871 271.399C77.1656 266.765 76.5634 268.901 76.0215 268.841C75.9312 270.045 76.0215 270.646 76.172 270.646C76.2925 270.646 76.4129 270.255 76.5333 270.135C76.8645 269.804 76.9548 270.376 76.9548 272.663C76.9548 273.866 76.9849 275.1 76.9849 276.484C76.8645 276.845 76.714 277.176 76.6236 277.417C76.5935 276.334 76.5333 275.461 76.5032 274.769C76.2323 275.13 76.0215 275.431 75.8108 275.702C75.329 280.396 75.4495 285.963 75.329 291.169C75.2688 293.155 75.2688 295.352 75.1183 297.007C74.9678 298.722 74.9075 300.377 74.9075 301.942C74.9075 302.724 74.9376 303.507 74.9678 304.259C75.028 305.102 75.0882 306.185 75.1785 307.569C74.9979 310.849 74.8774 316.175 74.7871 321.502C79.2129 321.562 83.6988 321.592 86.8601 321.532C88.4558 321.652 89.6601 321.742 90.4729 321.803C90.8643 321.833 91.1955 321.863 91.4063 321.863C91.6772 321.863 91.8579 321.863 92.0385 321.893C92.8514 321.893 93.6944 321.742 95.1998 321.472C95.7417 321.381 96.5847 321.321 97.9696 321.171C97.6385 321.441 97.217 321.562 97.4277 321.652C97.6084 321.742 98.5417 321.803 99.1438 321.863C99.4449 321.772 99.9266 321.682 99.9567 321.592C100.017 321.441 99.746 321.321 99.5352 321.08C101.221 321.11 102.365 321.141 103.75 321.171C107.574 321.321 111.307 321.562 115.341 321.261C115.793 321.231 116.546 321.291 117.178 321.291H119.978C120.851 321.291 121.784 321.231 122.537 321.261C125.698 321.411 129.04 321.592 132.563 321.742C134.851 321.532 134.851 321.532 137.711 321.652C143.161 321.863 148.008 321.712 151.741 321.141C155.866 321.201 159.93 321.261 163.754 321.321C166.132 321.321 168.36 321.261 170.076 321.592C170.799 321.411 171.341 321.261 171.913 321.11C172.545 321.141 173.177 321.11 173.478 321.171C175.255 321.411 177.302 321.411 179.5 321.351C180.222 321.321 181.035 321.321 181.758 321.351C185.913 321.472 189.345 321.201 192.837 320.96C193.59 320.9 194.463 320.84 195.216 320.84C197.082 320.87 199.07 320.93 201.117 320.96C205.603 321.11 210.239 321.261 214.695 321.381C215.899 321.411 217.254 321.411 218.428 321.381C220.084 321.321 221.74 321.231 222.071 320.93C219.482 320.84 216.803 320.81 214.755 320.629C212.738 320.448 211.323 320.148 209.547 319.877C212.558 319.425 214.876 319.786 217.224 319.907C220.265 319.696 221.77 319.756 223.336 320.148C223.757 320.268 224.059 320.388 224.329 320.509C224.871 320.719 225.925 320.9 227.521 320.93C233.061 321.05 238.6 321.171 243.959 321.261C246.579 321.291 247.632 321.11 248.686 320.749C249.017 320.629 249.951 320.448 250.493 320.448C252.419 320.479 254.467 320.298 256.333 320.509C257.989 320.689 259.314 320.599 260.308 320.358C260.97 320.388 261.662 320.418 262.174 320.418C265.034 320.418 267.112 320.629 268.888 320.93C270.845 321.231 272.682 321.532 274.729 321.863C275.12 321.712 275.482 321.592 275.873 321.472C279.125 321.532 281.714 321.441 282.858 320.93C283.942 321.05 284.755 321.171 284.965 321.201C288.157 321.171 290.625 321.171 293.064 321.141C297.068 321.141 300.741 320.96 304.445 320.81C306.01 320.749 307.335 320.689 309.111 320.779C311.43 320.9 313.838 321.11 316.638 320.93C317.21 320.9 318.565 320.99 319.197 321.08C320.763 321.291 322.539 321.351 324.406 321.231C326.634 321.08 329.072 320.9 331.451 320.719C331.842 320.659 332.505 320.599 332.926 320.539C334.733 320.388 335.907 320.448 336.539 320.749C336.81 320.87 337.051 320.96 337.322 321.08C339.218 320.96 340.784 320.9 342.44 320.779C343.584 320.719 344.276 320.599 343.885 320.388C343.524 320.208 342.681 320.178 341.507 320.208C340.935 320.208 340.423 320.208 339.76 320.208C340.363 319.997 340.844 319.786 341.326 319.606C340.302 320.057 338.526 319.997 336.87 320.027ZM601.663 314.611C602.175 314.52 602.717 314.43 603.379 314.34C605.276 314.671 603.469 314.851 602.777 315.062C599.013 315.092 595.581 315.002 592.059 315.152C590.011 315.243 587.392 315.122 585.074 315.032C584.411 315.002 583.99 314.821 583.388 314.701C585.013 314.641 586.188 314.611 587.392 314.581C587.633 314.581 587.964 314.55 588.115 314.55C590.734 314.791 593.775 314.52 596.605 314.701C597.598 314.761 599.375 314.581 601.031 314.49C601.061 314.49 601.362 314.55 601.663 314.611ZM234.235 311.06C235.8 311.03 237.155 311 238.901 310.939C239.353 311.06 240.076 311.21 240.166 311.331C240.226 311.421 239.233 311.511 238.721 311.571C236.854 311.301 235.469 311.601 232.79 311.722C233.422 311.421 233.813 311.24 234.235 311.06ZM204.278 319.726C208.192 319.696 208.192 319.696 208.553 320.117C204.278 320.208 204.188 320.178 204.278 319.726ZM303.09 319.786C304.987 319.847 305.197 320.087 306.492 320.238C302.969 320.328 302.608 320.268 303.09 319.786ZM227.942 311.752L228.815 311.692C229.147 311.541 229.448 311.391 229.839 311.21C231.013 311.541 230.833 311.782 229.448 311.842C227.762 311.902 226.437 311.812 226.858 311.451L227.942 311.752ZM363.906 307.75C363.124 307.84 362.491 307.93 361.528 308.081C360.715 307.93 360.053 307.78 359.39 307.659L359.932 307.569C361.137 307.629 362.311 307.689 363.906 307.75ZM223.366 311.722C220.325 311.601 220.235 311.571 222.463 311.21C222.824 311.421 223.095 311.541 223.366 311.722ZM639.206 308.683C639.598 308.652 640.26 308.713 640.802 308.743C640.621 308.803 640.531 308.923 640.2 308.953C638.755 309.014 637.551 309.074 636.226 309.104L635.895 308.953C637.009 308.893 638.213 308.773 639.206 308.683ZM83.9698 242.48C83.8494 243.203 83.7591 243.744 83.6386 244.647C83.6386 243.323 83.6085 242.45 83.6085 240.735C83.759 241.578 83.8494 241.939 83.9698 242.48ZM539.913 317.108C538.889 317.168 537.926 317.199 536.872 317.259C536.872 317.199 536.722 317.138 536.902 317.108C537.565 317.018 538.167 316.958 539.16 316.807C539.491 316.958 539.642 317.018 539.913 317.108ZM272.802 321.141C274.217 320.96 274.217 320.96 275.963 321.141C274.729 321.141 273.796 321.141 272.802 321.141ZM214.816 311.331C214.936 311.331 215.659 311.451 215.598 311.451C215.237 311.541 214.755 311.601 214.213 311.662C214.153 311.662 213.611 311.601 213.039 311.511C213.792 311.421 214.394 311.361 214.816 311.331ZM548.162 317.319C546.868 317.349 545.995 317.379 544.64 317.409C545.573 317.078 546.446 317.078 548.162 317.319ZM203.495 311.391H202.532L202.261 311.06H203.495V311.391ZM199.07 311.24L199.852 311.27L199.401 311.571L198.317 311.511L199.07 311.24ZM613.766 316.326L613.525 316.205L615.452 316.115L615.693 316.236L613.766 316.326ZM579.323 314.701L579.293 314.611L581.19 314.581V314.701H579.323ZM574.717 314.55C574.596 314.611 574.085 314.641 573.663 314.641C573.573 314.641 573.091 314.581 573.151 314.55C573.242 314.49 573.573 314.43 574.024 314.34C574.416 314.43 574.837 314.49 574.717 314.55ZM327.898 320.479C328.109 320.509 328.41 320.539 328.5 320.569C328.561 320.599 328.29 320.659 328.169 320.659C327.928 320.659 327.597 320.629 327.115 320.599C327.477 320.539 327.687 320.509 327.898 320.479ZM576.674 315.182L576.854 315.122L578.269 315.182L577.878 315.273L576.674 315.182ZM246.518 311.27L246.699 311.481H245.916L246.518 311.27ZM78.1591 274.498C78.129 274.378 78.0989 274.107 78.0688 273.896C78.0989 273.776 78.129 273.505 78.129 273.535C78.1591 273.626 78.2193 273.866 78.2494 274.107C78.2193 274.318 78.1591 274.558 78.1591 274.498ZM332.625 320.268C332.444 320.298 332.294 320.328 332.113 320.328C331.963 320.328 331.782 320.298 331.631 320.298L332.173 320.238L332.625 320.268ZM565.534 318.101C568.003 317.891 570.261 318.161 572.67 318.161C573.723 318.161 574.807 318.222 575.801 318.282C576.162 318.312 576.222 318.432 576.403 318.492H576.433C575.56 318.492 574.777 318.523 573.814 318.523C570.201 318.673 567.371 318.553 565.444 318.071L565.534 318.101ZM77.4365 263.665C77.015 264.177 76.6236 264.357 76.172 263.816C76.172 261.348 76.4129 261.107 76.5935 260.445C76.8043 259.633 76.9548 260.174 77.0753 261.649C77.1355 262.311 77.3161 262.461 77.4365 262.823V263.665ZM469.101 306.787C468.83 306.877 468.77 306.937 468.529 306.967C468.318 306.997 467.897 307.027 467.595 307.027C465.398 306.997 463.2 306.937 461.032 306.817C463.712 306.516 466.331 306.636 469.101 306.787ZM382.362 306.426C383.898 306.335 385.132 306.245 386.366 306.155C387.962 306.486 387.992 306.606 386.487 306.696C384.59 306.847 383.416 306.757 382.362 306.426ZM77.3462 251.358C77.3462 253.013 77.3462 254.487 77.3462 255.992C77.3462 256.624 77.2559 257.195 77.1957 257.797L77.0753 257.587C77.0451 255.811 77.0451 254.006 77.015 252.26C77.015 250.996 77.1054 250.876 77.3462 251.358ZM679.49 310.247C678.948 310.307 678.406 310.368 677.412 310.458C677.653 309.976 679.189 309.706 680.995 309.284C681.116 309.706 681.085 310.007 679.339 310.277L679.49 310.247ZM471.63 307.058C474.339 306.997 477.049 306.967 479.548 307.178C476.838 307.238 474.129 307.268 471.63 307.058ZM556.532 317.499C556.08 317.8 555.719 318.041 555.358 318.312H554.665C554.425 318.101 554.154 317.861 553.883 317.62C554.786 317.56 555.599 317.53 556.532 317.499ZM378.147 306.396C375.769 306.486 374.354 306.696 372.156 306.486C373.751 306.215 375.317 306.125 378.147 306.396ZM387.39 307.9C383.596 307.78 383.596 307.78 384.951 307.389C386.065 307.509 388.082 307.509 387.39 307.9ZM195.667 306.185C197.745 306.185 199.822 306.185 202.11 306.185C202.442 306.426 201.508 306.516 200.093 306.456C198.799 306.365 197.173 306.275 195.667 306.185ZM565.414 318.071C565.353 318.222 565.293 318.372 565.203 318.613C563.758 318.492 562.825 318.432 561.891 318.342V318.222L565.504 318.071H565.414ZM686.113 310.127C686.685 310.007 687.257 309.886 688.01 309.736C688.913 309.976 689.214 310.157 687.408 310.368C686.956 310.277 686.595 310.187 686.204 310.127H686.113ZM544.399 307.599C546.025 307.419 547.078 307.298 548.192 307.178C548.102 307.569 548.012 307.569 544.399 307.599ZM369.506 320.509C368.031 320.749 366.616 320.81 365.111 320.479C366.917 320.509 368.212 320.509 369.506 320.509ZM396.934 307.84H399.884L399.945 307.96L396.904 307.99L396.934 307.84ZM576.403 318.492C577.457 318.372 578.51 318.252 579.684 318.131C579.353 318.462 579.353 318.462 576.433 318.492H576.403ZM484.937 307.419L482.98 307.358L483.161 307.208L485.058 307.268L484.937 307.419ZM624.303 316.145C624.875 316.085 625.447 316.055 626.019 315.995C626.05 315.995 626.411 316.055 626.381 316.085C625.869 316.145 625.357 316.205 624.875 316.266L624.303 316.145ZM407.261 307.629C406.147 307.659 404.912 307.689 404.34 307.449C405.906 307.389 406.388 307.569 407.17 307.629H407.261ZM85.3547 223.282C85.3246 222.68 85.3246 222.078 85.2945 221.506C85.2945 221.446 85.3547 221.356 85.3848 221.266L85.4752 223.041L85.3547 223.282ZM686.204 310.127C685.421 310.157 684.638 310.187 683.554 310.217C684.909 309.976 684.909 309.976 686.113 310.157L686.204 310.127ZM552.046 317.861C552.769 317.951 553.431 318.071 552.046 318.192C551.053 318.071 551.805 317.951 552.136 317.83L552.046 317.861ZM83.4881 215.639C83.458 215.428 83.3978 215.277 83.3978 215.217C83.3978 214.976 83.4279 214.615 83.458 214.314C83.4881 214.435 83.5182 214.555 83.5182 214.676C83.4881 214.916 83.4881 215.247 83.4881 215.639ZM370.951 320.087L374.865 320.057V320.148L371.042 320.087H370.951ZM679.49 310.247L679.339 310.277L680.875 310.398L680.393 310.458L679.49 310.247ZM570.291 317.59C570.592 317.65 571.044 317.68 570.984 317.71C570.863 317.77 570.532 317.8 570.261 317.83C570.05 317.8 569.689 317.77 569.689 317.71C569.689 317.68 570.02 317.65 570.291 317.59ZM563.607 317.74L563.186 317.499C563.397 317.499 563.728 317.499 563.878 317.499C564.029 317.56 564.119 317.65 564.24 317.71L563.607 317.74ZM78.5505 289.454L78.7311 288.461L78.7914 288.942L78.6107 289.935L78.5505 289.454Z" fill="black"/>
<path d="M663.774 78.0885C664.437 78.269 663.865 78.3894 663.834 78.5398C665.25 78.4496 666.574 78.3894 668.17 78.2991C670.037 78.1787 671.783 78.1486 673.439 78.3894C673.649 78.4195 673.981 78.4496 674.191 78.4195C676.69 78.3292 679.4 78.6 681.839 78.2991C682.2 78.269 682.892 78.269 683.434 78.2991C685.211 78.3593 686.897 78.4195 688.974 78.5098C690.57 78.6 691.985 78.5699 693.4 78.4195C693.791 78.3894 694.273 78.3292 694.694 78.269C695.116 78.2991 695.357 78.3292 695.748 78.3593C696.922 78.5398 698.066 78.6903 699.782 78.5098C700.174 78.4797 701.017 78.5098 701.589 78.5398C702.793 78.6 704.088 78.6903 705.413 78.7505C706.406 78.8107 707.279 78.8107 708.243 78.7204C708.875 78.6602 709.808 78.6301 710.501 78.6301C712.729 78.7204 715.197 78.8107 717.847 78.9009C718.057 78.8709 718.419 78.7806 718.961 78.7204C719.653 78.6602 720.677 78.5699 721.159 78.6301C722.995 78.7806 724.862 78.8107 726.849 78.7806C727.18 78.7806 727.692 78.7806 727.872 78.8107C729.679 79.1116 731.425 78.9912 733.232 78.8107C733.533 78.7806 733.894 78.7505 734.255 78.7505C735.73 78.7204 737.176 78.7204 738.741 78.6903C740.487 79.1417 743.799 79.1718 745.997 78.6602C746.178 79.1116 748.135 79.1417 749.911 79.1718C751.898 79.232 753.072 78.9912 754.337 78.7806C755.451 79.1116 755.451 79.1116 757.829 79.0213C758.1 79.1417 758.371 79.262 758.642 79.3523C760.689 79.3824 760.599 79.0213 761.743 78.9009C762.165 79.0815 762.556 79.232 762.917 79.3824L763.399 79.3523C763.7 79.2019 764.031 79.0213 764.483 78.7806C765.567 78.931 766.38 79.0514 767.192 79.1718C767.223 79.1718 769.42 79.262 769.511 79.262C769.601 79.1718 769.691 79.0514 769.812 78.931C770.504 79.0815 771.046 79.262 771.438 79.262C772.552 79.232 772.792 79.3222 773.214 79.4426C773.425 79.5028 774.268 79.5931 774.719 79.563C775.984 79.5329 776.977 79.563 778.091 79.6532C779.205 79.7435 780.47 79.7736 781.674 79.8037C782.457 79.8037 783.27 79.7435 784.083 79.7134L784.022 79.6231C783.541 79.5931 783.059 79.563 782.637 79.563C781.584 79.5329 780.379 79.5329 779.536 79.4426C778.483 79.3222 777.61 79.1417 776.887 78.9611C776.616 78.9009 776.947 78.7505 777.037 78.6602L777.7 78.6301C777.369 78.8708 777.88 79.0213 779.175 79.0213C780.199 78.9912 781.403 78.9611 782.517 78.9611C784.233 79.4426 785.016 79.3222 787.394 78.8708C790.887 78.9009 793.958 79.2019 797.39 79.3523C798.263 79.232 799.046 79.0213 800.34 79.2019C800.762 79.262 800.762 79.4125 800.943 79.5028C800.371 79.5028 799.768 79.5329 799.257 79.5028C798.775 79.4727 797.992 79.3824 797.33 79.3222C797.089 79.7736 797.45 79.894 799.919 80.0745C800.371 79.9843 800.822 79.894 801.274 79.7736C801.846 79.8639 802.297 79.9241 802.689 79.9843C804.345 79.6833 805.88 79.4125 807.596 79.1116C807.446 79.0514 807.205 78.931 806.844 78.8107C807.596 78.8107 808.078 78.8107 808.77 78.8107C809.493 78.8408 810.426 78.9009 811.269 78.9611H811.209V78.7806C814.19 78.9009 816.719 79.1417 819.097 79.4125C819.669 79.4727 820.121 79.5028 820.753 79.5931C821.807 79.4426 822.8 79.2921 823.673 79.1718C824.968 79.0213 826.564 78.9611 827.347 79.1417C828.671 79.4125 829.936 79.3523 831.351 79.2019C831.833 79.0815 831.652 79.1116 831.772 79.232C831.772 79.2921 831.802 79.3523 831.802 79.3824C831.983 79.3523 832.314 78.9912 832.826 78.7204L832.796 78.8408C832.675 79.0213 832.585 79.1718 832.465 79.3222C832.585 79.2921 832.706 79.2921 832.826 79.3222C833.248 78.9912 833.368 78.931 833.458 79.232C833.278 79.5028 833.127 79.7134 832.977 79.8639C833.218 79.9843 833.669 80.3153 833.729 82.6925C833.669 83.1138 833.609 83.505 833.549 84.1068C833.699 84.2272 833.82 84.3175 834 84.4378C833.88 85.9123 833.79 87.1762 833.699 88.41V88.3197L834.06 89.6437L834.03 90.1553L833.699 90.396C833.519 92.7432 834.06 94.1274 833.85 96.6551C834.422 95.2709 834.512 92.2316 834.693 89.7641C834.753 89.072 834.602 87.748 834.542 86.8753C834.693 85.2202 834.873 83.5351 835.024 82.0004C835.205 83.1138 835.385 84.1971 835.566 85.2202C835.596 85.4309 835.596 85.8221 835.626 86.4239C835.506 86.1832 835.415 86.0327 835.385 85.9424C835.295 86.8452 835.205 87.6878 835.084 88.6808C835.325 89.7641 835.566 90.8775 835.897 92.2617C835.626 92.8636 835.445 93.345 835.205 93.8566C835.626 95.4515 835.686 97.7685 835.656 100.507C835.626 102.252 835.716 103.998 835.777 106.134C835.746 106.285 835.686 106.826 835.626 107.368C835.746 107.97 835.837 108.451 836.017 109.234C835.837 109.865 835.686 110.347 835.506 110.919C835.867 112.784 836.288 111.912 836.589 112.032C836.83 114.68 836.439 117.148 836.65 119.705C836.83 119.916 837.011 120.127 837.192 120.398C837.131 121.601 837.071 122.624 837.041 123.587C837.192 123.948 837.342 124.039 837.402 124.58C837.463 125.092 837.372 125.995 837.342 126.747C837.463 127.77 837.553 128.884 837.583 130.027C837.613 130.99 837.583 132.073 837.643 132.946C837.734 134.27 837.884 135.293 837.914 136.918C837.974 138.814 838.125 140.86 838.275 142.786C838.516 145.855 838.486 149.557 838.878 152.295C838.968 152.987 839.118 153.709 839.149 154.582C839.299 157.802 839.811 159.577 840.022 162.647C840.383 163.279 840.112 164.302 840.052 165.024C840.172 166.288 840.263 167.552 840.353 168.515C840.443 169.748 840.564 169.778 840.744 169.658C840.925 169.538 840.985 168.846 841.015 167.822C841.045 166.378 841.106 164.843 841.136 163.279C841.196 161.383 841.075 160.119 840.774 159.397C840.714 159.276 840.684 159.005 840.624 158.705C840.684 157.621 840.744 156.628 840.804 155.515C840.925 156.087 840.985 156.387 841.106 156.959C841.106 156.117 841.075 155.665 841.075 155.094C841.015 155.033 840.955 155.003 840.925 154.943C840.804 154.763 840.684 154.401 840.744 153.499C840.774 153.107 840.895 152.867 840.985 152.807C841.136 152.746 841.286 152.927 841.407 153.017C841.467 155.876 841.918 155.695 842.189 157.26C841.979 157.621 842.28 159.216 842.009 159.577C842.009 159.788 842.039 160.149 842.039 160.149C842.28 160.179 842.039 161.774 842.219 162.165C842.611 160.39 842.46 157.561 842.611 155.124C842.761 155.364 842.852 155.575 843.032 155.876C842.972 154.401 842.942 153.198 842.912 151.994C842.942 151.242 843.002 150.339 843.032 149.587C843.093 148.503 843.183 148.142 843.394 148.353C843.183 150.339 843.514 150.82 843.665 151.874C843.364 152.927 843.364 154.251 843.574 155.786C843.273 156.568 843.243 157.772 843.333 159.276C843.364 159.818 843.303 160.51 843.303 161.142C843.303 162.436 843.303 163.73 843.303 165.325C843.695 164.332 843.364 161.954 843.635 160.992C843.785 161.232 843.936 161.533 844.116 161.834C844.056 160.029 844.056 160.059 844.297 158.193C844.357 157.742 844.387 157.019 844.357 156.448C844.327 153.408 844.628 150.67 844.568 147.631C844.568 147.571 844.568 147.48 844.598 147.39C844.869 144.2 844.899 140.68 844.929 137.129C845.05 136.978 845.14 136.828 845.23 136.677C845.29 137.339 845.08 138.182 845.321 138.513C845.351 138.573 845.411 139.205 845.411 139.566C845.381 140.619 845.351 141.763 845.321 142.967C845.26 144.591 845.321 146.096 845.411 147.811C845.622 146.969 845.652 145.976 845.622 144.862C845.592 143.027 845.652 141.311 845.802 139.717C845.923 138.423 846.043 137.159 845.923 135.624C845.893 135.293 845.893 134.721 845.923 134.39C846.073 132.705 846.103 130.87 846.133 129.064C846.164 128.282 846.073 127.409 846.133 126.717C846.194 124.791 846.224 123.768 846.284 122.053C846.374 120.518 846.465 119.254 846.344 117.629C846.314 117.388 846.435 116.907 846.435 116.486C846.615 114.048 846.976 111.852 846.706 108.903C846.856 108 846.976 107.278 847.097 106.736C847.067 105.442 847.007 104.359 847.037 103.396C847.127 101.229 847.157 99.1528 847.067 96.9561C847.037 96.1436 847.007 94.8797 847.067 94.3682C847.308 92.5927 847.247 89.7942 847.579 88.6808C847.518 87.1461 847.458 85.792 847.398 84.6184C847.338 82.7828 847.759 82.843 847.789 81.3384C847.729 80.7666 847.639 80.4958 847.579 79.6532C847.518 78.8107 847.428 77.938 847.338 76.945C847.579 76.4936 847.729 76.1927 847.88 75.8918C847.88 74.2066 847.94 71.709 847.88 71.4983C847.639 70.5354 847.729 68.3086 847.609 66.7438C847.729 65.811 847.789 64.848 847.819 63.8249C845.381 63.7346 842.37 63.8249 839.6 63.8851C839.66 63.7647 839.721 63.6444 839.781 63.5541C838.998 63.5541 838.306 63.524 837.824 63.524C835.777 63.524 833.91 63.524 831.983 63.5541C830.538 63.5541 829.665 63.4939 828.521 63.4036C828.099 63.3735 827.196 63.4036 826.714 63.4337C824.667 63.6444 822.861 63.6745 821.295 63.3134C819.94 63.4337 818.766 63.4337 817.351 63.3735C815.605 63.3134 813.889 63.2532 812.233 63.1328C811.601 63.0726 810.757 63.0425 810.125 63.0726C808.53 63.1328 807.235 63.1027 805.79 62.9824C805.158 62.9222 804.044 62.9523 803.17 62.9824C800.912 63.0726 798.715 63.0726 796.517 62.9222C795.854 62.8921 795.072 62.8319 794.409 62.862C793.024 62.9222 791.971 62.8018 790.796 62.7416C789.984 62.6814 788.99 62.6212 788.267 62.6513C786.431 62.7416 784.986 62.5912 783.36 62.531C781.132 62.4407 778.754 62.4407 776.405 62.4106C776.194 62.4106 775.833 62.4407 775.713 62.4708C774.81 62.7416 773.545 62.6513 772.19 62.5912C771.558 62.5611 770.805 62.5912 770.113 62.6212C769.631 62.6212 769.119 62.6814 768.668 62.6814C767.102 62.6513 765.386 62.6212 763.82 62.5912C761.984 62.5912 760.238 62.5611 758.431 62.5611C757.648 62.5611 756.836 62.5611 755.993 62.5912C753.102 62.531 750.031 62.4407 747.141 62.3805C745.967 62.3805 744.943 62.3805 743.287 62.3805C742.143 62.1398 740.247 62.0796 737.928 62.2301C737.176 62.2902 736.122 62.2902 735.309 62.2301C734.225 62.1699 733.081 62.1097 732.268 61.9592C730.913 61.7486 728.986 61.7185 727.752 61.4176C726.247 61.0565 723.085 61.1167 721.159 61.4477C718.84 61.8389 715.769 61.9291 712.789 61.6282C710.29 61.3875 707.911 61.3273 705.985 61.6282C704.871 61.5981 703.847 61.5379 703.486 61.5981C701.619 61.869 699.572 61.8088 697.555 61.7185C695.056 61.5981 692.587 61.5981 690.028 61.6282C687.679 61.6583 685.301 61.7185 682.892 61.5379C681.477 61.4176 679.52 61.5079 677.834 61.5079C677.112 61.5379 676.239 61.5379 675.456 61.568C672.837 61.6282 670.157 61.6583 667.658 61.7185C665.791 61.7185 663.774 61.8389 661.817 61.5379C662.811 61.4477 663.564 61.3875 664.346 61.3273C664.166 61.2972 664.045 61.237 663.834 61.237C663.413 61.237 663.172 61.237 662.811 61.237C660.131 61.2972 657.602 61.3273 654.863 61.2069C651.159 61.0264 647.245 60.9662 643.422 60.8759C642.218 60.8458 640.983 60.8458 640.17 61.0264C638.273 61.4176 635.443 61.3875 633.306 61.2671C630.747 61.1167 628.368 61.0565 625.749 61.1167C625.598 61.1167 625.388 61.1167 625.207 61.0866C623.13 61.0264 621.082 61.0866 619.186 61.1768C614.609 61.4176 609.913 61.4477 605.246 61.3273C601.723 61.237 598.261 61.1167 594.648 61.2069C593.594 61.237 592.39 61.0866 591.306 60.9963C590.764 60.9662 588.145 60.7556 587.573 60.7856C582.575 60.9361 577.337 61.0565 572.61 61.2069C569.178 61.2069 566.107 61.237 562.915 61.237C562.855 61.237 562.765 61.237 562.644 61.237C559.874 61.0264 557.014 61.1167 554.124 61.1167C550.09 61.0866 546.206 61.0866 541.931 61.0565C539.883 61.0264 537.986 60.906 536.15 61.0866C535.789 60.9963 535.518 60.9662 535.247 60.8759C534.344 60.9662 533.531 61.0565 532.627 61.1467C531.333 61.0866 529.948 60.9963 528.804 60.9361C528.141 60.906 527.208 60.8759 526.757 60.9361C524.619 61.1768 522.662 61.0866 520.615 60.8759C519.41 61.1768 517.423 61.237 515.918 61.1167C514.443 60.9963 513.118 61.0264 511.763 61.0264C510.348 61.0264 508.903 61.0565 507.488 61.0866C504.748 61.1768 502.069 61.3574 499.57 60.9662C499.208 60.906 498.335 60.906 497.793 60.9361C495.355 61.0264 493.067 61.1167 490.417 61.0565C487.828 60.9963 485.118 61.0264 482.499 60.906C481.927 60.8759 481.054 60.8458 480.662 60.906C479.217 61.0866 478.224 60.9361 477.23 60.7856C476.748 60.8458 476.387 60.906 476.026 60.9361C473.708 61.2069 471.359 61.3875 468.469 61.1467C467.927 61.0866 467.114 61.1467 466.422 61.1167C464.073 61.0866 462.146 61.2671 460.159 61.4176C459.828 61.4176 459.648 61.4477 459.497 61.4477C459.226 61.3574 458.955 61.2972 458.594 61.1768C458.263 61.2972 458.052 61.3875 457.751 61.5079C456.998 61.3273 457.088 61.0264 455.523 61.0866C454.921 61.1167 454.559 61.2972 454.048 61.4176C452.422 61.3574 452.121 60.9361 449.712 60.9963C450.706 61.1467 451.489 61.2972 452.663 61.4778C451.519 61.5379 450.886 61.5981 450.284 61.5981C443.119 61.5078 435.923 61.4176 428.758 61.3574C427.885 61.3574 426.981 61.3574 426.168 61.4176C424.332 61.5379 422.315 61.6583 420.358 61.7486C419.906 61.7787 419.424 61.8088 418.702 61.8389C419.274 61.9592 419.695 62.0495 420.267 62.1699C418.22 62.2 416.685 62.2 414.818 62.2301C413.523 62.2601 412.379 62.2601 411.115 62.2C409.88 62.1398 408.194 62.1097 407.231 62.2C405.545 62.3805 403.979 62.1097 402.474 62.2301C400.246 61.9592 398.65 62.2301 396.934 62.4106C395.429 62.2 395.459 62.2301 393.773 62.3504C393.321 62.3805 392.749 62.4106 392.268 62.3805C389.287 62.2902 386.427 62.3805 383.326 62.5009C383.687 62.6213 383.958 62.6814 384.289 62.8018C383.747 62.8921 383.236 63.0124 382.724 63.1027C384.59 62.9823 386.457 62.862 388.384 62.7416C388.685 63.1328 388.595 63.1027 386.668 63.2833C385.072 63.4337 383.988 63.193 382.423 63.2231C382.633 63.1328 382.784 63.1027 382.904 63.0425C381.971 63.0726 380.887 63.193 380.135 63.1328C378.087 63.0124 377.124 63.2231 376.04 63.4036C374.023 63.3435 374.023 63.3435 373.15 63.1328H373.18C371.554 63.1328 369.928 63.1027 368.092 63.1027C367.55 63.2231 367.7 63.4939 366.014 63.4939C365.563 63.4337 365.141 63.4036 364.659 63.3435C364.509 63.4337 364.388 63.524 364.208 63.6444C362.883 63.4638 361.227 63.524 360.053 63.3134C359.692 63.2532 358.548 63.2833 357.795 63.3134C357.133 63.3435 356.531 63.4337 355.898 63.4939C355.808 63.4939 355.688 63.4939 355.266 63.4638C355.928 63.4337 356.41 63.3735 356.892 63.3435L356.531 63.2532C355.898 63.2231 355.266 63.1629 354.483 63.1328C354.393 63.2532 354.333 63.3435 354.242 63.4638C353.068 63.4337 352.014 63.4036 350.72 63.3735C350.389 63.524 350.027 63.6745 349.606 63.855C346.294 63.7948 343.163 64.0356 339.67 64.0356C339.068 64.3365 337.804 64.3967 335.787 64.3967C332.987 64.3666 330.157 64.4569 327.357 64.4869C326.122 64.517 324.888 64.6976 323.774 64.6675C321.636 64.6374 319.89 64.7277 318.114 64.9082C317.632 64.818 317.211 64.7578 316.699 64.6675C314.892 64.8781 312.935 64.9985 310.707 65.0587C310.045 65.0587 309.774 65.1189 309.262 64.9985C308.811 64.8781 307.907 64.9082 307.516 65.0587C307.095 65.2092 307.636 65.2994 308.449 65.2994C309.503 65.3295 310.376 65.3295 311.34 65.3596C311.46 65.3596 311.58 65.3897 311.701 65.4198C311.58 65.48 311.46 65.5402 311.219 65.6605C311.972 65.6003 312.393 65.5703 313.206 65.48C313.086 65.7809 314.32 65.7508 316.066 65.7508C315.254 65.811 315.013 65.8411 314.802 65.8712C312.996 66.0216 311.159 65.8411 309.292 65.9013C307.546 65.9614 305.981 65.8712 305.107 65.48C304.505 65.6304 304.144 65.7508 303.723 65.8411C302.247 65.5101 300.14 65.6003 298.273 65.6605C296.617 65.7207 295.202 65.7207 293.667 65.6003C292.854 65.5402 291.8 65.5703 290.867 65.5703C290.475 65.5703 290.084 65.5703 289.753 65.5402C288.368 65.4198 287.404 65.48 286.802 65.6906C287.194 65.7809 287.495 65.8411 287.826 65.9013H287.766C288.067 66.0216 288.368 66.1721 288.729 66.3226C289.211 66.2925 289.753 66.2925 290.144 66.2624C291.68 66.0818 293.215 66.1119 294.991 66.1721C297.28 66.2624 299.688 66.3226 302.067 66.3226C304.114 66.3226 306.191 66.2022 308.058 66.4429C308.208 66.473 308.6 66.4429 308.841 66.4429C308.991 66.4429 309.292 66.473 309.654 66.5031C309.383 66.5934 309.142 66.6536 308.931 66.7438C308.028 66.7438 306.974 66.6837 306.462 66.7438C304.987 66.9244 303.241 66.8943 301.645 66.9244C300.892 66.9545 300.049 66.9244 299.297 66.8943C298.243 66.8341 296.918 66.7438 295.594 66.6536C295.262 66.4128 294.389 66.3225 293.516 66.473C292.191 66.7137 290.656 66.804 288.729 66.8642C286.23 66.9545 284.123 66.8341 281.804 66.7438C279.848 66.6536 277.74 66.6536 275.723 66.7137C274.79 66.7438 273.916 66.804 272.893 66.7739C272.351 66.7438 271.688 66.804 271.116 66.8341C269.43 66.9545 268.768 67.1651 269.099 67.466C267.082 67.5864 265.276 67.7068 263.258 67.5864C262.717 67.5563 261.994 67.5563 261.452 67.5864C258.592 67.767 255.732 67.6466 252.871 67.5864C247.844 67.5262 242.786 67.4359 237.788 67.5262C237.637 67.7068 237.487 67.8873 237.366 68.0378C238.842 68.1281 240.226 68.2484 241.672 68.2785C244.923 68.3387 248.205 68.3688 251.306 68.5794C252.179 68.6396 253.263 68.6095 254.226 68.6396C256.394 68.6998 258.592 68.7299 260.729 68.7901C262.717 68.8202 264.824 68.8202 266.45 69.0609C266.57 69.091 266.962 69.0609 267.233 69.0609C268.166 69.091 269.039 69.091 270.123 69.1211C272.05 69.1813 274.067 69.2716 276.024 69.3317C274.187 69.5424 272.261 69.5725 270.063 69.4521C269.099 69.3919 267.835 69.3919 266.901 69.4521C265.547 69.5424 264.372 69.5424 263.048 69.422C262.867 69.5424 262.717 69.6327 262.686 69.6627C260.368 69.6627 258.231 69.6627 256.063 69.6627C251.426 69.6026 246.79 69.5424 242.033 69.4822C239.444 69.4521 237.637 69.6928 235.259 69.8734C236.102 69.9637 236.644 70.0539 237.276 70.084C239.594 70.1442 241.973 70.2646 244.261 70.2345C247.934 70.1743 250.884 70.5053 254.317 70.5655L254.347 70.6558C253.444 70.6859 252.57 70.716 251.125 70.7761C254.016 71.0169 256.364 71.2275 258.742 71.4382C259.405 71.3178 260.519 71.3178 261.302 71.4081C263.078 71.6789 265.276 71.7692 267.383 71.9196C269.37 72.0701 271.147 72.1002 273.254 72.0701C274.187 72.0701 276.144 71.9798 276.566 72.3108C276.596 72.3409 276.837 72.3409 276.987 72.3409C277.198 72.2506 277.439 72.1604 277.8 72.04C278.222 72.1604 278.553 72.2807 278.673 72.2506C280.058 72.1905 280.389 72.3409 280.992 72.4914C281.744 72.6719 283.671 72.7622 284.815 72.6719C284.454 72.5817 284.093 72.4914 283.491 72.3409C285.116 72.4011 284.996 72.5516 284.785 72.6719C287.013 72.7923 289.151 73.033 291.439 72.8224C291.8 72.6418 292.041 72.4914 292.372 72.3409C293.065 72.4011 293.847 72.4312 293.908 72.4914C294.058 72.6117 293.877 72.7622 293.847 72.9127L297.52 72.8525C297.129 72.8224 296.708 72.8224 296.015 72.7923C296.617 72.7321 296.979 72.6719 297.671 72.5817C297.551 72.7321 297.49 72.7923 297.4 72.8826C298.935 72.8224 300.17 72.8826 301.344 73.0631C301.856 73.1534 302.548 73.2136 303.211 73.2136C304.445 73.2136 305.559 73.2136 306.703 73.2136C307.847 73.2136 308.781 72.9728 309.985 73.1534C310.256 73.033 310.497 72.9127 310.737 72.8224C312.785 72.8525 314.802 72.9127 316.578 72.9428C317.271 72.9428 317.783 72.9127 318.445 73.0029C318.987 73.0631 320.041 73.0631 320.853 73.0631C321.426 73.0631 321.937 72.9728 322.6 72.9127C323.955 73.0029 325.159 73.2437 327.116 73.1835C327.537 73.2738 328.049 73.3941 328.561 73.5145C328.561 73.334 328.982 73.2437 330.217 73.3039C330.127 73.5145 329.284 73.4844 328.501 73.4844C328.922 73.5145 329.494 73.6349 329.735 73.6048C331.602 73.4543 333.619 73.2738 335.757 73.0932C337.292 73.1233 339.219 73.1835 341.086 73.2437C341.537 73.2437 342.169 73.2437 342.38 73.2738C344.217 73.6349 347.438 73.3339 349.275 73.665C349.365 73.6951 350.057 73.665 350.238 73.6349C350.931 73.4844 351.442 73.5747 352.105 73.6349C352.707 73.665 352.978 73.6951 353.58 73.7552C354.724 73.8756 355.507 73.8154 356.29 73.665C357.524 73.3941 358.006 73.4242 359.993 73.5145C362.311 73.5747 364.027 73.6048 365.924 73.665C366.135 73.665 366.406 73.6349 366.616 73.6048C367.61 73.4844 368.453 73.5446 369.266 73.665C370.32 73.8154 371.373 73.996 372.427 74.1464C372.818 74.2066 373.24 74.2668 373.722 74.2969C375.558 74.327 377.214 74.3872 379.231 74.4173C379.532 74.4774 380.014 74.5677 380.526 74.6881C381.459 74.4473 381.459 74.4473 383.025 74.4173C383.356 74.4173 383.838 74.4173 384.018 74.3872C384.801 74.2367 385.524 74.1464 386.788 74.2668C387.601 74.3571 388.956 74.2969 389.528 74.3872C390.491 74.5677 391.244 74.5075 392.147 74.4173C393.412 74.2969 394.767 74.1765 396.302 74.0261C397.175 74.327 398.831 74.2367 400.276 74.2969C402.143 74.3571 403.046 74.1163 404.461 74.0862C405.997 74.1163 407.05 74.1464 408.736 74.1765C410.392 74.2668 411.928 74.2668 413.463 74.1464C414.126 74.0862 414.607 74.0862 415.089 74.2066C415.3 74.2668 415.842 74.2668 416.263 74.2668C417.588 74.327 418.852 74.3872 420.147 74.4473C420.478 74.4473 421.02 74.5075 421.11 74.5075C422.285 74.2969 423.94 74.4474 425.175 74.327C426.951 74.1765 428.547 74.2367 430.112 74.3571C431.287 74.4473 432.22 74.4473 433.394 74.3571C434.478 74.2668 435.833 74.2367 437.067 74.2367C438.723 74.2668 440.469 74.2668 442.185 74.2969C442.998 74.2969 443.902 74.2969 444.564 74.3571C446.732 74.5376 448.899 74.5075 451.218 74.4173C451.79 74.5978 452.181 74.8385 453.686 74.7784C454.59 74.7182 455.914 74.658 457.058 74.5677C457.54 74.7182 457.811 74.8987 458.504 74.9589C459.949 75.1094 461.574 75.2297 463.2 74.9589C463.712 74.8686 464.675 74.8686 465.428 74.8085C465.549 74.7784 465.82 74.7483 466 74.7182C465.609 74.6279 465.217 74.5376 464.736 74.4173C466.753 74.327 467.656 74.5075 468.108 74.658C470.125 74.6881 471.751 74.6881 473.497 74.7182C474.882 74.7483 475.785 74.8686 476.026 75.1094C475.665 75.1395 475.303 75.1395 474.882 75.1696C476.237 75.3501 476.237 75.3501 478.164 74.989C478.555 75.1094 478.886 75.2297 479.368 75.3802C480.512 75.2297 481.626 75.1094 482.83 74.9589C483.824 75.1094 484.877 75.0492 485.931 74.9589C485.811 74.8385 485.72 74.7182 485.51 74.4774C486.563 74.5978 487.105 74.658 488.039 74.7483C487.015 74.8385 486.443 74.8987 485.871 74.9589C486.443 75.1395 487.045 75.32 487.677 75.5307C488.31 75.4404 488.882 75.3802 489.424 75.32C489.996 75.4404 490.417 75.5908 491.019 75.6209C491.682 75.651 492.495 75.5307 493.217 75.4705C493.609 75.5607 494 75.6811 494.451 75.6811C496.198 75.7112 497.974 75.7112 499.66 75.6811C501.105 75.651 502.851 75.651 503.333 75.8015C504.236 76.1024 505.29 76.0121 506.404 75.9218C507.789 75.8316 508.993 75.8015 510.499 75.8918C512.817 76.0422 515.286 76.0723 517.724 75.7714C518.146 75.982 518.507 76.1325 518.868 76.313C519.651 76.313 520.404 76.283 521.126 76.283C521.397 76.3732 521.548 76.4334 521.698 76.4936C525.341 76.4334 523.354 75.9218 524.529 75.651C526.425 75.7112 528.202 75.7714 529.827 75.8015C530.791 75.7413 531.032 75.4705 532.477 75.5908C532.748 75.8015 532.868 76.0121 531.423 76.1325C534.283 76.3732 536.782 76.4334 538.348 76.283C539.462 76.1626 540.726 76.0121 542.021 75.8316C542.021 75.9519 541.81 76.1024 542.081 76.1626C542.472 76.283 543.165 76.4334 543.857 76.4334C544.791 76.4635 545.122 76.313 545.242 76.1626C545.303 76.0723 545.303 75.982 545.423 75.8918C545.573 75.7413 546.055 75.6811 547.199 75.7413C547.561 76.0121 547.952 76.313 548.373 76.614C551.053 76.5237 550.571 76.0723 552.077 75.8918C552.859 75.9218 553.672 75.982 554.636 76.0422C554.907 75.8316 555.148 75.6811 555.358 75.5006C555.69 75.651 555.9 75.8015 555.9 75.9519C555.87 76.1024 555.479 76.2529 555.509 76.3732C555.569 76.8246 556.593 77.0954 559.453 76.8848C560.236 76.8246 560.838 76.8246 561.711 76.8848C563.156 76.9751 564.692 77.0954 566.317 76.9149C566.98 76.8547 567.793 76.8547 568.515 76.9751C570.021 77.2459 571.044 77.2158 572.7 77.0352C573.573 76.945 574.476 76.7644 575.38 76.7644C576.975 76.7644 576.674 77.0352 577.005 77.2158C577.367 77.3964 578.631 77.5468 579.384 77.4866C581.1 77.3362 582.936 77.3663 584.773 77.3362C585.616 77.3362 586.489 77.3061 587.543 77.3061C586.911 77.1255 586.399 76.9751 585.857 76.8246L586.429 76.7343C587.392 76.8547 588.265 76.9751 589.319 77.0954C590.042 77.2158 590.734 77.2459 591.728 77.2459C593.504 77.2459 595.25 77.276 597.117 77.276C599.164 77.3061 601.272 77.607 603.199 77.2158C605.035 77.3061 607.233 77.3061 608.377 77.6371C609.16 77.8778 609.973 78.0885 610.876 78.3593C611.629 78.2991 612.351 78.269 612.833 78.1787C614.338 77.938 615.934 77.6973 617.5 77.4565L619.878 77.3663C619.216 77.6371 618.312 77.5167 617.439 77.4565C617.921 77.5468 618.282 77.6973 618.884 77.7575C620.48 77.938 621.865 78.0885 623.16 78.2088C624.093 78.1787 625.026 78.0885 625.598 78.1486C627.013 78.269 628.579 78.2389 629.934 78.2991C632.493 78.4195 633.878 78.2389 635.233 77.938C635.474 77.8778 635.925 77.8477 635.985 77.8477C637.581 77.9079 638.936 77.9681 640.17 78.0283C640.953 78.0584 641.886 78.0283 642.549 78.0885C644.536 78.269 646.131 78.2088 647.577 77.938C647.637 77.938 647.878 77.938 648.119 77.9681C648.149 78.0584 648.179 78.1186 648.239 78.2389C650.467 77.8778 652.785 77.9982 655.043 78.1486C656.037 78.0584 656.91 77.9681 657.783 77.8778C660.914 78.5097 660.914 78.5098 663.774 78.3292C663.533 78.3894 662.6 78.269 663.774 78.0885ZM833.187 76.5237C833.338 76.1927 833.308 75.8918 834.422 75.7112C834.873 75.7714 834.783 75.8918 834.633 76.0723C834.542 76.1927 834.602 76.313 834.602 76.4635C834.331 76.4334 833.338 76.4936 833.187 76.5237ZM520.916 76.1626C520.585 76.1626 520.163 76.0121 520.253 75.9519C520.554 75.7714 521.307 75.6811 522.752 75.8617C522.271 76.0121 522.391 76.2228 520.916 76.1626ZM584.141 76.3732C583.87 76.313 583.93 76.1927 583.99 76.1325C584.02 76.1024 584.713 76.0422 584.803 76.0723C585.164 76.1325 585.526 76.1927 585.646 76.2529C585.917 76.3732 586.007 76.5237 586.278 76.7343C585.315 76.5839 584.623 76.4936 584.141 76.3732ZM832.374 76.2529C831.652 76.1325 831.772 75.8918 831.471 75.651C832.495 75.7714 832.465 75.982 832.374 76.2529ZM837.282 119.013C836.981 119.013 836.921 118.502 836.981 115.944C837.101 117.178 837.192 118.081 837.282 119.013ZM813.919 77.9982C813.828 77.6672 813.828 77.6672 816.448 77.607C815.424 77.7575 814.762 77.8477 813.919 77.9982ZM845.11 129.756C845.2 131.833 845.2 131.833 844.869 132.705C845.019 131.953 844.779 129.997 845.11 129.756ZM833.157 78.8107C833.127 78.6602 833.157 78.5398 833.248 78.3593L833.308 78.2389L833.398 78.2088C833.488 78.4195 833.338 78.6 833.157 78.8107ZM599.887 76.1325L599.797 76.0121L601.964 75.9519L602.085 76.1024L599.887 76.1325ZM835.807 79.0815C835.656 79.7736 835.536 79.3824 835.355 79.2019C835.566 78.6 835.686 78.7806 835.807 79.0815ZM843.364 139.626C843.364 139.807 843.303 140.078 843.273 140.018C843.093 139.747 843.093 139.055 843.153 138.182C843.333 138.212 843.424 138.633 843.364 139.626ZM832.615 78.3593L832.826 78.269C832.826 78.3593 832.826 78.4195 832.796 78.5098L832.615 78.6C832.645 78.5098 832.645 78.4195 832.615 78.3593ZM827.527 75.7413C827.708 75.982 827.708 75.982 825.63 76.1325C826.233 76.0121 826.865 75.8617 827.527 75.7413ZM835.144 78.8708L835.084 78.9912L834.964 78.6L835.084 78.4195C835.084 78.5699 835.114 78.7204 835.144 78.8708ZM835.596 85.9424C835.596 85.8823 835.686 85.5212 835.686 85.5512C835.716 85.9123 835.777 86.2434 835.807 86.4841C835.807 86.5443 835.746 86.785 835.686 87.0859C835.656 86.6346 835.626 86.2133 835.596 85.9424ZM800.009 77.6672L799.648 77.6371C799.678 77.5769 799.618 77.5167 799.768 77.4565C799.889 77.4264 800.22 77.3963 800.491 77.3663L800.912 77.4264L800.009 77.6672ZM399.524 62.4407L400.035 62.4708L399.614 62.7717L398.921 62.7416L399.524 62.4407ZM835.686 76.6441C835.716 76.6441 835.746 76.7644 835.777 76.8547C835.746 76.9751 835.686 77.1556 835.656 77.1556C835.626 77.1857 835.596 77.0352 835.506 76.945C835.596 76.7945 835.626 76.6441 835.686 76.6441ZM793.958 78.9009C794.168 78.9009 794.47 78.931 794.56 78.9611C794.62 78.9912 794.319 79.0514 794.229 79.0514C794.018 79.0514 793.657 79.0213 793.115 78.9611C793.566 78.931 793.777 78.9009 793.958 78.9009ZM837.252 121.391C837.252 121.33 837.252 121.09 837.282 120.939L837.493 121.33L837.463 121.902L837.252 121.391ZM270.936 67.5864C270.906 67.5563 270.845 67.466 270.876 67.466C271.357 67.466 271.749 67.4359 272.2 67.4359L272.291 67.5563L270.936 67.5864ZM592.601 61.568C592.48 61.568 592.179 61.5379 591.939 61.5079C592.029 61.4778 592.119 61.4176 592.209 61.4176C592.42 61.4176 592.782 61.4477 593.323 61.4778C592.932 61.5079 592.751 61.5379 592.601 61.568ZM817.592 75.6209H817.261L817.2 75.4404H817.772L817.592 75.6209ZM845.11 134.571L844.989 134.029C845.019 133.879 845.05 133.608 845.08 133.578C845.11 133.548 845.14 133.788 845.17 133.939C845.17 134.21 845.14 134.39 845.11 134.571ZM508.18 75.32L508.12 75.3802H507.217L507.247 75.2899L508.18 75.32ZM836.981 114.048C837.011 113.898 837.011 113.747 837.041 113.537C837.041 113.507 837.101 113.717 837.101 113.777C837.101 113.898 837.071 114.139 837.041 114.349C837.011 114.229 837.011 114.139 836.981 114.048ZM836.77 130.448C836.65 132.434 836.379 132.735 836.168 133.337C836.108 133.457 835.987 132.886 835.957 132.464C835.897 131.772 835.927 130.93 835.897 129.997C836.198 129.666 836.469 129.154 836.77 130.448ZM763.881 79.8338C764.302 79.6532 764.633 79.5028 764.995 79.3523C765.928 79.4426 766.801 79.5329 767.825 79.6231C766.741 79.8338 765.747 79.9843 763.881 79.8338ZM833.519 88.4702C833.428 89.1623 833.368 89.8845 833.217 90.9979C833.157 89.3729 833.037 88.3197 833.157 87.1461C833.368 86.8753 833.398 88.0188 833.519 88.5604V88.4702ZM303.632 64.9684C302.759 65.4198 300.772 64.9985 299.477 65.149C300.531 64.9082 302.247 65.0587 303.632 64.9684ZM811.059 79.1116C811.932 79.2019 812.805 79.262 814.099 79.3824C811.6 79.4426 811.601 79.4426 811.119 79.0815L811.059 79.1116ZM287.736 66.0216C287.495 66.1721 287.254 66.3225 286.893 66.5332C286.23 66.142 286.23 66.142 287.796 66.0216H287.736ZM836.589 125.784C836.71 125.513 836.83 125.242 837.011 124.881C836.891 126.145 836.891 126.145 836.589 125.784ZM616.626 78.4797C615.663 78.269 615.392 78.1486 617.168 78.0283C616.988 78.1787 616.837 78.2991 616.626 78.4797ZM835.686 119.134C835.807 118.502 835.927 118.712 836.048 119.495C835.897 119.886 835.777 120.067 835.686 119.104V119.134ZM835.716 119.104C835.506 119.435 835.325 119.164 835.205 117.419C835.415 118.111 835.566 118.622 835.716 119.164V119.104ZM466.813 75.2598C467.566 75.1696 467.987 75.1395 468.74 75.0492C468.65 75.1996 468.589 75.2598 468.529 75.32C468.108 75.2899 467.656 75.2899 466.813 75.2598ZM808.289 79.9241L807.416 80.0745L807.084 80.0143L808.018 79.8639L808.289 79.9241ZM373.12 63.2833C373.661 63.2532 374.203 63.193 374.806 63.1629C374.565 63.4337 374.565 63.4337 373.12 63.2833ZM473.346 75.4404C473.136 75.4103 472.835 75.3501 472.865 75.3501C472.895 75.32 473.166 75.2899 473.316 75.2598C473.497 75.2899 473.798 75.32 473.798 75.3501C473.828 75.3802 473.557 75.4103 473.346 75.4404ZM284.454 66.2624L284.002 66.1721C284.183 66.1721 284.454 66.142 284.574 66.142C284.725 66.142 284.815 66.2022 284.906 66.2323C284.785 66.2323 284.635 66.2323 284.454 66.2624Z" fill="black"/>
</g>
<defs>
<clipPath id="clip0_660_2">
<rect width="927" height="380" fill="white"/>
</clipPath>
</defs>
</svg>
